<?xml version="1.0" standalone="no"?>
<!DOCTYPE svg PUBLIC "-//W3C//DTD SVG 20010904//EN"
 "http://www.w3.org/TR/2001/REC-SVG-20010904/DTD/svg10.dtd">
<svg version="1.0" xmlns="http://www.w3.org/2000/svg"
 width="1280.000000pt" height="640.000000pt" viewBox="0 0 1280.000000 640.000000"
 preserveAspectRatio="xMidYMid meet">
<metadata>
Created by potrace 1.15, written by Peter Selinger 2001-2017
</metadata>
<g transform="translate(0.000000,640.000000) scale(0.100000,-0.100000)"
fill="#000000" stroke="none">
<path d="M7585 4823 c-82 -8 -252 -34 -305 -48 -100 -26 -460 -154 -534 -189
-39 -19 -144 -82 -234 -141 l-162 -106 -27 19 c-129 92 -442 263 -613 336
-176 74 -492 126 -780 126 -161 0 -247 -12 -460 -64 -384 -93 -674 -230 -1419
-668 -766 -451 -1269 -713 -1548 -809 -189 -65 -372 -76 -491 -31 -107 41
-197 144 -229 262 -26 98 -24 357 5 461 42 156 175 327 287 368 32 12 81 27
109 32 107 20 253 4 286 -32 10 -11 45 -19 113 -25 l97 -10 0 58 c0 55 -1 58
-28 64 -32 8 -62 32 -62 50 0 12 -40 30 -183 80 -206 73 -466 81 -649 18 -117
-40 -364 -177 -374 -208 -3 -10 -31 -45 -61 -78 -95 -104 -179 -244 -234 -394
-77 -211 -83 -243 -83 -444 1 -193 15 -302 65 -488 71 -271 190 -468 430 -716
97 -101 134 -131 220 -183 288 -170 534 -265 974 -376 212 -54 314 -74 450
-87 55 -6 150 -15 210 -21 299 -30 1076 57 1670 187 486 106 1150 332 1535
523 241 120 414 236 678 455 64 54 112 86 127 86 24 0 74 -35 255 -179 361
-288 704 -466 1260 -651 266 -89 430 -135 740 -208 530 -124 798 -154 1525
-169 532 -10 781 29 1365 218 183 60 433 190 634 330 111 78 245 210 308 304
217 327 277 455 325 691 27 137 25 414 -5 563 -52 257 -162 450 -387 677 -142
143 -327 258 -485 301 -91 24 -290 24 -385 -1 -88 -23 -219 -87 -282 -137 -26
-22 -65 -51 -85 -66 -21 -16 -37 -34 -38 -41 0 -7 -18 -25 -40 -40 -32 -22
-39 -33 -40 -59 0 -17 -4 -35 -10 -38 -5 -3 -10 -22 -10 -41 l0 -34 60 0 59 0
68 65 c37 36 92 77 121 92 49 24 60 25 160 21 123 -5 165 -20 268 -93 100 -72
207 -216 245 -330 43 -130 44 -354 3 -477 -19 -60 -83 -118 -192 -175 -142
-76 -195 -88 -377 -88 -159 0 -161 1 -260 37 -133 48 -275 107 -355 148 -111
56 -374 217 -630 383 -709 463 -927 595 -1201 730 -288 140 -460 191 -779 231
-210 26 -499 40 -615 29z"/>
</g>
</svg>
